<svg width="433" height="212" viewBox="0 0 433 212" fill="none" xmlns="http://www.w3.org/2000/svg">
<path d="M65.4754 123.95C77.0754 117.95 80.3088 108.117 80.4754 103.95H87.4755C83.4755 98.4501 110.475 131.95 113.975 135.95C117.475 139.95 119.975 143.45 113.975 146.95C107.975 150.45 99.4755 144.95 98.4755 141.95C97.4755 138.95 92.9755 134.45 91.4755 131.95C90.2755 129.95 88.3088 129.117 87.4755 128.95C83.9755 131.45 63.4754 147.45 52.9754 146.95C42.4754 146.45 46.9754 139.45 46.9754 137.95C46.9754 136.45 50.9754 131.45 65.4754 123.95Z" fill="#2E2E2E" stroke="#2E2E2E" stroke-width="2" stroke-linecap="round"/>
<path d="M111.475 104.45C116.275 106.05 121.475 106.45 123.475 106.45C121.975 100.95 121.975 93.4492 132.975 93.4492C143.975 93.4492 142.975 102.949 143.975 104.45C144.975 105.95 140.475 132.949 139.975 136.449C139.475 139.949 138.975 152.949 132.975 155.449C126.975 157.949 126.475 148.949 124.975 144.949C123.475 140.949 124.975 124.449 124.975 120.949C124.975 117.449 128.475 119.949 116.975 118.949C105.475 117.949 103.475 114.95 101.975 111.95C100.475 108.95 105.475 102.45 111.475 104.45Z" fill="#2E2E2E" stroke="#2E2E2E" stroke-width="2" stroke-linecap="round"/>
<path d="M75.9755 168.949C79.5755 172.149 96.1421 171.616 103.975 170.949V173.949H78.4755C66.9755 173.949 67.4755 177.949 65.4755 179.449C63.4755 180.949 60.4755 195.949 61.4755 198.449C62.4755 200.949 69.9755 209.449 75.9755 210.449C81.9754 211.449 120.975 210.449 126.475 210.449C131.975 210.449 139.475 206.949 138.975 201.949C138.475 196.949 134.975 195.449 133.475 194.949C131.975 194.449 94.9755 193.949 85.4755 193.949C75.9755 193.949 78.4755 190.449 79.4755 188.949C80.4755 187.449 96.4755 189.949 102.975 188.949C109.475 187.949 115.975 181.949 117.475 179.449C118.975 176.949 119.475 176.449 119.475 166.949C119.475 157.449 108.475 155.949 105.975 155.949C103.475 155.949 81.4755 156.949 78.4755 157.449C75.4755 157.949 71.4755 164.949 75.9755 168.949Z" fill="#2E2E2E" stroke="#2E2E2E" stroke-width="2" stroke-linecap="round"/>
<path d="M151.975 131.95C149.175 142.35 159.809 143.284 165.475 142.45C163.809 143.617 159.476 147.049 155.476 151.449C150.476 156.949 144.476 163.949 147.476 167.449C150.476 170.949 159.476 169.449 162.976 167.449C166.476 165.449 179.476 151.949 181.976 147.949C184.476 143.949 186.476 142.45 185.976 136.949C185.476 131.448 175.476 126.95 173.476 126.95C171.476 126.95 154.976 123.45 151.975 131.95Z" fill="#2E2E2E" stroke="#2E2E2E" stroke-width="2" stroke-linecap="round"/>
<path d="M193.975 99.9493C189.175 106.349 194.309 111.616 197.475 113.449C199.476 114.907 197.475 175.949 196.475 181.949C195.475 187.949 197.475 193.949 201.975 194.449C206.475 194.949 211.975 193.449 213.975 188.449C215.975 183.449 213.975 115.949 213.975 113.449C213.975 110.949 212.475 108.449 211.975 105.949C211.475 103.449 199.975 91.9493 193.975 99.9493Z" fill="#2E2E2E" stroke="#2E2E2E" stroke-width="2" stroke-linecap="round"/>
<path d="M239.475 119.948L268.475 120.949V126.949C260.975 126.783 245.675 126.449 244.475 126.449C242.975 126.449 239.475 123.449 235.475 125.449C231.475 127.449 232.975 131.449 232.975 133.449V146.949C232.975 149.949 232.975 149.449 237.475 154.449C241.075 158.449 248.309 160.116 251.475 160.449V172.949L249.975 175.449C245.475 174.949 235.575 173.949 231.975 173.949C227.475 173.949 218.975 171.449 216.975 179.449C215.375 185.849 219.642 188.116 221.975 188.449H302.475C305.475 188.449 311.475 186.949 310.975 180.949C310.575 176.149 306.142 175.283 303.975 175.449H266.475V161.449C268.309 161.283 272.575 160.849 274.975 160.449C277.975 159.949 283.475 160.949 285.475 153.449C287.075 147.449 280.809 145.616 277.475 145.449L248.475 143.949V140.949H275.975C281.175 140.949 282.142 135.949 281.975 133.449C281.975 132.616 282.275 130.749 283.475 129.949C284.975 128.949 284.475 126.449 285.475 123.449C286.475 120.449 283.975 112.949 281.975 110.448C279.975 107.947 265.475 104.948 260.475 105.948C255.475 106.948 235.475 101.948 234.475 110.448C233.675 117.248 237.475 119.615 239.475 119.948Z" fill="#2E2E2E" stroke="#2E2E2E" stroke-width="2" stroke-linecap="round"/>
<path d="M304.475 132.45C309.275 137.65 313.809 138.95 315.475 138.95C319.975 140.339 330.975 139.949 343.975 139.949C356.975 139.949 372.475 137.449 378.475 137.949C384.475 138.449 387.475 140.449 387.975 143.949C388.475 147.449 385.475 150.449 382.475 151.449C380.075 152.249 362.809 153.783 354.475 154.449L353.475 166.449C353.142 169.116 350.975 174.449 344.975 174.449C338.975 174.449 338.142 168.449 338.475 165.449V155.449C335.475 155.449 326.175 155.249 312.975 154.449C296.475 153.449 296.475 142.95 294.975 138.95C293.475 134.95 300.975 129.45 304.475 132.45Z" fill="#2E2E2E" stroke="#2E2E2E" stroke-width="2" stroke-linecap="round"/>
<path d="M327.475 168.949C329.075 171.349 329.809 176.283 329.975 178.449C331.476 178.949 354.475 178.449 361.475 177.949C368.475 177.449 372.475 179.949 372.975 183.949C373.475 187.949 369.475 192.449 367.475 193.449C365.475 194.449 339.975 193.449 332.475 193.949C324.975 194.449 321.475 192.949 318.475 191.449C315.476 189.949 315.475 183.949 315.475 182.449V182.449C315.475 180.949 315.475 177.449 312.975 174.449C310.475 171.449 311.475 169.449 311.475 167.449C311.475 165.449 315.475 163.449 318.475 163.449C321.475 163.449 325.475 165.949 327.475 168.949Z" fill="#2E2E2E" stroke="#2E2E2E" stroke-width="2" stroke-linecap="round"/>
<path fill-rule="evenodd" clip-rule="evenodd" d="M328.975 104.449C326.975 105.282 322.675 107.049 321.475 107.449C319.975 107.949 313.975 112.949 316.475 123.449C318.975 133.949 327.975 136.949 333.475 136.449C338.975 135.949 350.475 133.949 352.975 127.449C355.475 120.949 355.475 115.449 352.975 110.949C350.475 106.449 346.475 103.449 340.475 102.449C335.125 101.557 330.967 103.517 329.42 104.245C329.233 104.334 329.084 104.404 328.975 104.449ZM332.975 118.449C333.975 118.616 336.375 118.849 337.975 118.449C339.575 118.049 339.642 119.616 339.475 120.449C338.142 121.116 334.975 122.149 332.975 120.949C330.475 119.449 332.475 118.449 332.975 118.449Z" fill="#2E2E2E"/>
<path d="M328.975 104.449L328.592 103.525L328.591 103.526L328.975 104.449ZM316.475 123.449L315.503 123.681L315.503 123.681L316.475 123.449ZM333.475 136.449L333.566 137.445L333.475 136.449ZM340.475 102.449L340.64 101.463L340.475 102.449ZM329.42 104.245L329.847 105.15L329.847 105.15L329.42 104.245ZM332.975 118.449L333.14 117.463L333.058 117.449H332.975V118.449ZM339.475 120.449L339.923 121.343L340.36 121.125L340.456 120.645L339.475 120.449ZM332.975 120.949L333.49 120.092L333.49 120.092L332.975 120.949ZM321.792 108.398C323.036 107.983 327.38 106.197 329.36 105.372L328.591 103.526C326.571 104.368 322.315 106.115 321.159 106.5L321.792 108.398ZM317.448 123.217C316.253 118.195 317.102 114.568 318.361 112.163C318.996 110.952 319.741 110.038 320.401 109.406C321.087 108.749 321.617 108.456 321.792 108.398L321.159 106.5C320.584 106.692 319.801 107.211 319.018 107.961C318.21 108.735 317.33 109.821 316.59 111.235C315.099 114.08 314.198 118.203 315.503 123.681L317.448 123.217ZM333.385 135.453C328.249 135.92 319.805 133.116 317.448 123.217L315.503 123.681C318.146 134.782 327.702 137.978 333.566 137.445L333.385 135.453ZM352.042 127.09C350.959 129.905 347.839 131.9 344.016 133.257C340.251 134.592 336.093 135.207 333.385 135.453L333.566 137.445C336.358 137.191 340.7 136.555 344.685 135.141C348.612 133.748 352.491 131.493 353.909 127.808L352.042 127.09ZM352.101 111.435C354.411 115.593 354.476 120.763 352.042 127.09L353.909 127.808C356.475 121.135 356.54 115.305 353.85 110.463L352.101 111.435ZM340.311 103.435C346.019 104.387 349.753 107.208 352.101 111.435L353.85 110.463C351.198 105.69 346.932 102.511 340.64 101.463L340.311 103.435ZM329.847 105.15C331.363 104.435 335.28 102.597 340.311 103.435L340.64 101.463C334.969 100.517 330.571 102.598 328.994 103.341L329.847 105.15ZM329.359 105.373C329.494 105.316 329.669 105.234 329.847 105.15L328.994 103.341C328.797 103.434 328.673 103.492 328.592 103.525L329.359 105.373ZM337.733 117.479C337.066 117.646 336.174 117.69 335.282 117.662C334.403 117.634 333.598 117.539 333.14 117.463L332.811 119.435C333.353 119.526 334.248 119.63 335.219 119.661C336.177 119.691 337.285 119.652 338.218 119.419L337.733 117.479ZM340.456 120.645C340.556 120.147 340.62 119.306 340.303 118.584C340.131 118.192 339.825 117.793 339.321 117.565C338.827 117.341 338.278 117.343 337.733 117.479L338.218 119.419C338.473 119.355 338.532 119.403 338.495 119.386C338.449 119.365 338.449 119.335 338.472 119.389C338.502 119.456 338.531 119.579 338.537 119.759C338.542 119.932 338.523 120.11 338.495 120.253L340.456 120.645ZM332.461 121.807C333.758 122.585 335.332 122.593 336.632 122.387C337.956 122.177 339.179 121.715 339.923 121.343L339.028 119.555C338.439 119.849 337.412 120.238 336.319 120.411C335.202 120.589 334.193 120.514 333.49 120.092L332.461 121.807ZM332.975 117.449C332.619 117.449 332.231 117.592 331.941 117.747C331.631 117.913 331.235 118.198 330.982 118.641C330.695 119.143 330.645 119.767 330.961 120.382C331.24 120.928 331.768 121.391 332.461 121.807L333.49 120.092C332.933 119.758 332.773 119.533 332.74 119.469C332.73 119.45 332.746 119.474 332.745 119.529C332.743 119.582 332.726 119.62 332.719 119.633C332.716 119.638 332.757 119.579 332.885 119.51C332.94 119.481 332.99 119.461 333.025 119.45C333.074 119.435 333.053 119.449 332.975 119.449V117.449Z" fill="#2E2E2E"/>
<path d="M33.9755 100.449C29.9755 96.4489 24.9755 85.4489 23.4755 84.4489M33.9755 100.449C32.9755 101.949 23.4755 107.449 18.4755 105.449C13.4754 103.449 11.9755 101.949 10.9755 94.9489C9.97549 87.9489 21.9755 83.4489 23.4755 84.4489M33.9755 100.449C31.9755 104.616 29.5755 113.749 35.9755 116.949C38.9755 119.449 40.4755 121.449 45.9755 120.949C51.4755 120.449 58.4755 107.308 57.4755 103.628M33.9755 100.449C37.3354 103.809 47.0456 105.758 57.4755 103.628M23.4755 84.4489C42.6559 98.0081 67.4673 87.7653 77.4755 80.9489M57.4755 103.628C59.4623 103.223 61.4753 102.669 63.4755 101.949C66.7449 100.772 69.2839 98.779 71.2323 96.4489M57.4755 103.628C58.9755 109.569 64.0755 120.349 72.4755 115.949C82.9755 110.449 79.4755 102.949 77.4755 100.949C75.8755 99.3489 72.6467 97.2823 71.2323 96.4489M71.2323 96.4489C75.2433 91.6521 76.7511 85.4264 76.9755 81.9489C75.8088 81.1156 74.2755 79.7489 77.4755 80.9489M70.4755 96.4489C75.6421 100.616 86.7755 107.549 89.9755 101.949C93.1755 96.3489 89.9755 91.2823 87.9755 89.4489C85.8088 87.1156 80.6755 82.1489 77.4755 80.9489" stroke="#FFE53B" stroke-width="4" stroke-linecap="round"/>
<path d="M19.4755 50.949C17.9755 55.2824 13.1755 62.649 5.97549 57.449C5.75815 57.2921 5.55119 57.1253 5.35427 56.9492M89.4755 50.949C95.9755 48.4489 94.9755 37.9492 94.4755 33.9492C93.9755 29.9492 89.4755 17.949 78.9755 9.44904C68.4755 0.949037 67.4755 0.949037 38.4755 3.44904C15.2755 5.44904 7.14215 21.2824 5.97549 28.949C3.06605 36.061 -0.97203 51.2929 5.35427 56.9492M89.4755 50.949C82.9755 53.4492 78.9755 49.4492 77.9755 47.4492M89.4755 50.949C90.8088 51.6158 91.8755 55.2492 91.4755 58.4492C90.9755 62.4492 88.9755 71.4492 79.4755 78.4492C69.9755 85.4492 55.4755 89.4492 49.9755 89.4492C44.4755 89.4492 25.9755 91.4494 12.9755 74.4492C5.97549 60.4492 5.73308 58.4492 5.35427 56.9492" stroke="#2E2E2E" stroke-width="4" stroke-linecap="round"/>
<path d="M248.475 70.9492C248.667 71.5224 248.843 72.2191 248.975 73.0026M214.568 85.9492C215.309 87.1443 216.115 88.184 216.975 88.9492C220.556 92.1321 226.986 93.0989 230.975 92.8572M214.568 85.9492C211.437 80.897 209.475 73.0666 209.475 71.4492C206.309 71.4492 199.775 72.0492 198.975 74.4492C197.975 77.4492 195.475 83.4492 203.975 86.9492C210.775 87.7492 213.871 86.6159 214.568 85.9492ZM214.568 85.9492C213.432 89.2826 211.842 96.5492 214.568 98.9492C217.975 101.949 216.975 101.449 222.975 102.949C227.775 104.149 230.309 96.7212 230.975 92.8572M230.975 92.8572C231.999 92.7952 232.863 92.6535 233.475 92.4492C236.475 91.4492 237.975 90.9492 243.475 86.9492C244.409 86.3451 245.203 85.6713 245.874 84.9492M230.975 92.8572C233.309 96.2212 239.175 102.649 243.975 101.449C248.775 100.249 250.309 95.6159 250.475 93.4492C249.574 90.9492 247.392 85.7492 245.874 84.9492M245.874 84.9492C248.241 87.4492 254.475 91.5492 260.475 87.9492C266.475 84.3492 264.642 78.7826 262.975 76.4492C262.142 74.8181 258.175 71.8453 248.975 73.0026M245.874 84.9492C249.291 81.2732 249.539 76.3464 248.975 73.0026" stroke="#F9BB10" stroke-width="4"/>
<path d="M196.475 36.9992C204.075 33.7992 200.642 27.6659 197.975 24.9992C189.175 23.3992 186.642 30.9992 186.475 34.9992C186.642 36.9992 188.875 40.1992 196.475 36.9992Z" stroke="#2E2E2E" stroke-width="4" stroke-linecap="round"/>
<path d="M201.975 22.9995C201.975 18.4995 205.375 9.09953 218.975 7.49953C232.575 5.89953 242.309 8.1662 245.475 9.49953C249.309 11.1664 256.875 16.6 256.475 25" stroke="#2E2E2E" stroke-width="4" stroke-linecap="round"/>
<path d="M267.475 38.5002C267.475 34.1002 264.142 31.3336 262.475 30.5002C256.475 27.5002 250.975 31.5002 252.475 38.0002C253.975 44.5002 260.475 45.5002 261.475 45.5002C262.475 45.5002 267.475 44.0002 267.475 38.5002Z" stroke="#2E2E2E" stroke-width="4" stroke-linecap="round"/>
<path d="M261.475 48.5C260.642 55.6667 254.175 70.9 234.975 74.5C215.775 78.1 204.642 68.3333 201.475 63C200.142 62.1667 197.175 56.9 195.975 42.5" stroke="#2E2E2E" stroke-width="4" stroke-linecap="round"/>
<path d="M218.425 38.1196C219.785 37.5072 220.692 39.3955 220.975 40.4162C220.975 42.7129 219.275 43.4785 216.725 42.7129C214.922 42.1716 216.725 38.8851 218.425 38.1196Z" fill="#2E2E2E"/>
<path d="M236.008 40.4704C235.706 39.2852 237.562 37.4128 239.116 38.1786C240.671 38.9441 241.448 40.4696 240.671 41.9966C239.893 43.5237 236.785 43.5245 236.008 40.4704Z" fill="#2E2E2E"/>
<path d="M226.975 48H232.975C234.475 49 232.475 54 230.975 54C228.475 54 225.975 49.5 226.975 48Z" fill="#2E2E2E"/>
<path d="M404.933 104C405.264 106.83 404.536 113.384 398.981 116.958C392.036 121.427 388.068 121.427 383.108 120.533C378.148 119.639 371.203 117.852 369.219 111.596C368.822 106.949 369.054 104.894 369.219 104.447" stroke="#579A30" stroke-width="4" stroke-linecap="round"/>
<path d="M368.975 105.949C366.142 106.783 360.475 108.849 360.475 110.449C360.475 112.449 360.975 117.949 363.975 118.449C366.975 118.949 371.475 118.449 373.475 116.949" stroke="#579A30" stroke-width="4"/>
<path d="M372.476 117.449C371.476 121.783 370.776 130.449 375.976 130.449C382.476 130.449 384.975 129.949 386.975 127.449C388.575 125.449 388.642 122.616 388.475 121.449" stroke="#579A30" stroke-width="4"/>
<path d="M387.975 121.949C388.475 125.616 390.875 132.849 396.475 132.449C402.075 132.049 402.809 127.283 402.475 124.949C402.142 122.116 401.175 116.449 399.975 116.449" stroke="#579A30" stroke-width="4"/>
<path d="M400.475 116.949C401.975 119.116 406.375 122.249 411.975 117.449C415.475 111.949 415.109 107.052 413.975 105.949C413 105 411.5 103.5 405.975 102.949" stroke="#579A30" stroke-width="4"/>
<path d="M359.476 68.4501C361.476 65.6501 360.309 58.9501 359.476 55.9501C357.976 53.4501 349.976 64.4501 348.976 65.9501C347.976 67.4501 345.476 71.4501 348.476 72.4501C351.476 73.4501 356.976 71.9501 359.476 68.4501Z" stroke="#2E2E2E" stroke-width="4"/>
<path d="M359.475 56.4486C361.309 51.6153 366.212 43.2083 378.5 41.5C392.525 39.5503 401.431 42.1051 405.5 43.5C410.025 45.0511 415 49.4991 416.475 55.4482C417.108 58 416.475 59.5 416.475 62M416.475 62C421 62 423 63.5518 425.475 66C426.539 67.0518 430.475 72.5 430.475 74.9482C430.475 75.4482 429.475 79.9482 425.475 79.9482C421.475 79.9482 417.262 76.7869 416.475 74.9482C415 71.5 411.975 60 416.475 62Z" stroke="#2E2E2E" stroke-width="4"/>
<path d="M416.975 75.9492C417.142 80.1159 417.065 86.0777 414.975 91.9492C413 97.5 402.604 103.741 399.475 104.949C393 107.449 388.975 107.449 387.475 107.449C385.975 107.449 374.475 106.949 371.475 104.949C368.475 102.949 363 100 359.975 94.4492C358.687 92.0849 356.475 85.5 356.475 82C356.475 79.2 356.142 73.1159 356.475 70.4492" stroke="#2E2E2E" stroke-width="4"/>
<path d="M375.475 72.9492C376.275 72.9492 377.809 73.9492 378.475 74.4492C378.764 74.6653 379 75.5 378.475 75.9492C378.096 76.2745 377.475 76.9492 375.975 76.9492C374.475 76.9492 373.475 75.9492 373.475 75.4492C373.475 74.9492 374.475 72.9492 375.475 72.9492Z" fill="#2E2E2E"/>
<path d="M400.976 73.9487C401.776 73.5487 404 73.9998 404.976 74.9487C405.571 75.2275 405.475 76.9486 404.975 77.4486C404.475 77.9486 402.5 77.5 401.975 77.4486C400.98 77.3511 399.5 76.5 399.476 75.9486C399.444 75.2422 399.976 74.4487 400.976 73.9487Z" fill="#2E2E2E"/>
<path d="M386.476 85.4494C386.876 85.0494 388.976 84.5 390.476 84.9494C391.476 84.9299 392 87.5001 391.476 88.4494C390.992 89.3247 390.263 90.4494 388.976 90.4494C387.5 90.4495 387 89.5001 386.476 88.4494C386.16 87.8168 385.976 85.9494 386.476 85.4494Z" fill="#2E2E2E"/>
<path d="M39.5 48C39.1 47.2 36.5 46 33.5 45.5C32 45.5 32 50 33 51C34 52 38 51.5 39 51C40 50.5 40 49 39.5 48Z" fill="#2E2E2E"/>
<path d="M67.5001 47.0011C68.3001 45.8011 68.5 43.5 67.0001 43.0011C62.5 42.5 62 44.5 61.5001 45.5011C60.8683 46.7664 62.0001 48.5011 63.5001 48.5011C65.0001 48.5011 66.5001 48.5011 67.5001 47.0011Z" fill="#2E2E2E"/>
<path d="M54 60.999C52.4 61.799 49.6667 61.999 48.5 61.999C44.9 61.999 45.6667 64.666 46.5 65.9995C47.5 67.3328 50.2 69.7995 53 68.9995C56.5 67.9995 57 64 57 63.499C57 62.7919 56 59.999 54 60.999Z" fill="#2E2E2E"/>
</svg>
