<svg width="103" height="51" viewBox="0 0 103 51" fill="none" xmlns="http://www.w3.org/2000/svg">
<path d="M15.9624 29.7464C18.6967 28.3321 19.4589 26.0142 19.4982 25.0321H21.1482C20.2053 23.7356 26.5698 31.6322 27.3948 32.5751C28.2198 33.518 28.8091 34.343 27.3948 35.168C25.9805 35.993 23.9768 34.6966 23.7411 33.9894C23.5054 33.2822 22.4447 32.2215 22.0911 31.6322C21.8082 31.1608 21.3446 30.9643 21.1482 30.925C20.3232 31.5143 15.4909 35.2859 13.0159 35.168C10.5408 35.0501 11.6016 33.4001 11.6016 33.0465C11.6016 32.6929 12.5444 31.5143 15.9624 29.7464Z" fill="#2E2E2E" stroke="#2E2E2E" stroke-width="0.3" stroke-linecap="round"/>
<path d="M26.8055 25.1497C27.9369 25.5268 29.1627 25.6211 29.6341 25.6211C29.2805 24.3246 29.2806 22.5566 31.8735 22.5566C34.4664 22.5566 34.2307 24.796 34.4664 25.1497C34.7021 25.5033 33.6414 31.8676 33.5235 32.6926C33.4056 33.5176 33.2878 36.5819 31.8735 37.1712C30.4592 37.7605 30.3413 35.6391 29.9877 34.6962C29.6341 33.7533 29.9877 29.8639 29.9877 29.0389C29.9877 28.2139 30.8127 28.8032 28.102 28.5675C25.3912 28.3318 24.9197 27.6247 24.5662 26.9175C24.2126 26.2104 25.3912 24.6782 26.8055 25.1497Z" fill="#2E2E2E" stroke="#2E2E2E" stroke-width="0.3" stroke-linecap="round"/>
<path d="M18.4375 40.3554C19.2861 41.1097 23.1911 40.984 25.0376 40.8268V41.534H19.0268C16.316 41.534 16.4339 42.4768 15.9624 42.8304C15.491 43.184 14.7838 46.7198 15.0195 47.3091C15.2553 47.8984 17.0232 49.902 18.4375 50.1377C19.8518 50.3734 29.0448 50.1377 30.3413 50.1377C31.6378 50.1377 33.4057 49.3127 33.2878 48.1341C33.1699 46.9555 32.3449 46.6019 31.9913 46.4841C31.6378 46.3662 22.9161 46.2484 20.6768 46.2484C18.4375 46.2484 19.0268 45.4233 19.2625 45.0698C19.4982 44.7162 23.2697 45.3055 24.8019 45.0698C26.3341 44.834 27.8663 43.4197 28.2198 42.8304C28.5734 42.2411 28.6913 42.1233 28.6913 39.8839C28.6913 37.6446 26.0984 37.291 25.5091 37.291C24.9198 37.291 19.7339 37.5267 19.0268 37.6446C18.3196 37.7625 17.3767 39.4125 18.4375 40.3554Z" fill="#2E2E2E" stroke="#2E2E2E" stroke-width="0.3" stroke-linecap="round"/>
<path d="M36.3522 31.632C35.6922 34.0835 38.1986 34.3035 39.5344 34.1071C39.1415 34.382 38.1201 35.1912 37.1772 36.2283C35.9986 37.5248 34.5843 39.1748 35.2914 39.9998C35.9986 40.8249 38.1201 40.4713 38.9451 39.9998C39.7701 39.5284 42.8345 36.3462 43.4238 35.4033C44.0131 34.4604 44.4845 34.1071 44.3666 32.8104C44.2488 31.5137 41.8916 30.4534 41.4202 30.4534C40.9487 30.4534 37.0593 29.6284 36.3522 31.632Z" fill="#2E2E2E" stroke="#2E2E2E" stroke-width="0.3" stroke-linecap="round"/>
<path d="M46.2523 24.091C45.1209 25.5996 46.3309 26.8411 47.0774 27.2733C47.5488 27.6168 47.0774 42.0057 46.8416 43.42C46.6059 44.8343 47.0774 46.2487 48.1381 46.3665C49.1988 46.4844 50.4953 46.1308 50.9667 44.9522C51.4382 43.7736 50.9667 27.8625 50.9667 27.2733C50.9667 26.684 50.6132 26.0947 50.4953 25.5054C50.3774 24.9161 47.6667 22.2053 46.2523 24.091Z" fill="#2E2E2E" stroke="#2E2E2E" stroke-width="0.3" stroke-linecap="round"/>
<path d="M56.9775 28.8025L63.8134 29.0384V30.4528C62.0455 30.4135 58.439 30.3349 58.1561 30.3349C57.8026 30.3349 56.9775 29.6277 56.0347 30.0992C55.0918 30.5706 55.4454 31.5135 55.4454 31.9849V35.1672C55.4454 35.8743 55.4454 35.7564 56.5061 36.935C57.3547 37.8779 59.0597 38.2708 59.8062 38.3494V41.2959L59.4526 41.8852C58.3919 41.7673 56.0582 41.5316 55.2097 41.5316C54.1489 41.5316 52.1453 40.9423 51.6739 42.828C51.2967 44.3366 52.3025 44.8709 52.8525 44.9495H71.8279C72.535 44.9495 73.9494 44.5959 73.8315 43.1816C73.7372 42.0502 72.6922 41.8459 72.1815 41.8852H63.342V38.5851C63.7741 38.5458 64.7799 38.4437 65.3456 38.3494C66.0528 38.2315 67.3492 38.4672 67.8206 36.6993C68.1978 35.285 66.7206 34.8529 65.9349 34.8136L59.099 34.46V33.7528H65.5813C66.8071 33.7528 67.0349 32.5742 66.9956 31.9849C66.9956 31.7885 67.0663 31.3485 67.3492 31.1599C67.7028 30.9242 67.5849 30.3349 67.8206 29.6277C68.0564 28.9206 67.4671 27.1527 66.9956 26.5632C66.5242 25.9737 63.1063 25.2667 61.9277 25.5024C60.7491 25.7382 56.0347 24.5596 55.799 26.5632C55.6104 28.1661 56.5061 28.7239 56.9775 28.8025Z" fill="#2E2E2E" stroke="#2E2E2E" stroke-width="0.3" stroke-linecap="round"/>
<path d="M72.2993 31.7515C73.4308 32.9773 74.4994 33.2837 74.8923 33.2837C75.953 33.6112 78.5459 33.5193 81.6103 33.5193C84.6746 33.5193 88.3283 32.93 89.7426 33.0479C91.1569 33.1657 91.8641 33.6372 91.9819 34.4622C92.0998 35.2872 91.3926 35.9943 90.6855 36.2301C90.1197 36.4186 86.0496 36.7801 84.0853 36.9372L83.8496 39.7659C83.771 40.3944 83.2603 41.6516 81.846 41.6516C80.4317 41.6516 80.2352 40.2373 80.3138 39.5301V37.1729C79.6066 37.1729 77.4145 37.1258 74.303 36.9372C70.4136 36.7015 70.4136 34.2266 70.06 33.2837C69.7064 32.3408 71.4743 31.0444 72.2993 31.7515Z" fill="#2E2E2E" stroke="#2E2E2E" stroke-width="0.3" stroke-linecap="round"/>
<path d="M77.7209 40.3531C78.098 40.9188 78.2709 42.0817 78.3102 42.5924C78.6638 42.7103 84.0853 42.5924 85.7353 42.4746C87.3854 42.3567 88.3282 42.946 88.4461 43.8889C88.564 44.8318 87.6211 45.8925 87.1496 46.1282C86.6782 46.3639 80.6674 46.1282 78.8995 46.2461C77.1316 46.3639 76.3066 46.0104 75.5994 45.6568C74.8922 45.3032 74.8922 43.8889 74.8922 43.5353V43.5353C74.8922 43.1817 74.8922 42.3567 74.3029 41.6496C73.7136 40.9424 73.9494 40.471 73.9494 39.9995C73.9494 39.5281 74.8922 39.0566 75.5994 39.0566C76.3066 39.0566 77.2494 39.6459 77.7209 40.3531Z" fill="#2E2E2E" stroke="#2E2E2E" stroke-width="0.3" stroke-linecap="round"/>
<path fill-rule="evenodd" clip-rule="evenodd" d="M78.0744 25.1502C77.603 25.3467 76.5894 25.7631 76.3065 25.8574C75.953 25.9753 74.5386 27.1539 75.1279 29.6289C75.7172 32.104 77.8387 32.8111 79.1352 32.6933C80.4316 32.5754 83.1424 32.104 83.7317 30.5718C84.321 29.0396 84.321 27.7432 83.7317 26.6824C83.1424 25.6217 82.1995 24.9145 80.7852 24.6788C79.5239 24.4686 78.5438 24.9305 78.1793 25.1022C78.1351 25.1231 78.0999 25.1397 78.0744 25.1502ZM79.0173 28.4499C79.253 28.4892 79.8187 28.5442 80.1959 28.4499C80.573 28.3556 80.5887 28.7249 80.5495 28.9213C80.2352 29.0785 79.4887 29.3221 79.0173 29.0393C78.428 28.6857 78.8994 28.4499 79.0173 28.4499Z" fill="#2E2E2E"/>
<path d="M78.0744 25.1502L78.0169 25.0117L78.0167 25.0118L78.0744 25.1502ZM75.1279 29.6289L75.2739 29.5942L75.2739 29.5942L75.1279 29.6289ZM79.1352 32.6933L79.1488 32.8426L79.1488 32.8426L79.1352 32.6933ZM83.7317 30.5718L83.5917 30.5179L83.5917 30.5179L83.7317 30.5718ZM83.7317 26.6824L83.6006 26.7553L83.6006 26.7553L83.7317 26.6824ZM80.7852 24.6788L80.7605 24.8268L80.7852 24.6788ZM78.1793 25.1022L78.2433 25.2379L78.2433 25.2379L78.1793 25.1022ZM80.1959 28.4499L80.2323 28.5954L80.2323 28.5954L80.1959 28.4499ZM79.0173 28.4499L79.0419 28.3019L79.0297 28.2999H79.0173V28.4499ZM80.5495 28.9213L80.6166 29.0555L80.6822 29.0227L80.6966 28.9508L80.5495 28.9213ZM79.0173 29.0393L79.0945 28.9106L79.0945 28.9106L79.0173 29.0393ZM76.354 25.9997C76.6435 25.9032 77.6637 25.4839 78.1321 25.2887L78.0167 25.0118C77.5423 25.2095 76.5353 25.623 76.2591 25.7151L76.354 25.9997ZM75.2739 29.5942C74.9874 28.3908 75.1897 27.5146 75.4965 26.9288C75.6507 26.6346 75.8321 26.4118 75.9941 26.2567C76.1599 26.098 76.2957 26.0191 76.354 25.9997L76.2591 25.7151C76.1406 25.7546 75.967 25.8673 75.7866 26.04C75.6024 26.2164 75.4008 26.4651 75.2308 26.7896C74.8894 27.4414 74.6792 28.3919 74.982 29.6637L75.2739 29.5942ZM79.1216 32.5439C77.8798 32.6568 75.8417 31.979 75.2739 29.5942L74.982 29.6637C75.5928 32.2289 77.7976 32.9655 79.1488 32.8426L79.1216 32.5439ZM83.5917 30.5179C83.3221 31.2188 82.5541 31.7002 81.6485 32.0215C80.7516 32.3398 79.7636 32.4855 79.1216 32.5439L79.1488 32.8426C79.8032 32.7831 80.8188 32.6342 81.7488 32.3043C82.67 31.9774 83.552 31.457 83.8717 30.6256L83.5917 30.5179ZM83.6006 26.7553C84.1614 27.7647 84.171 29.0117 83.5917 30.5179L83.8717 30.6256C84.471 29.0675 84.4806 27.7216 83.8628 26.6096L83.6006 26.7553ZM80.7605 24.8268C82.131 25.0552 83.0341 25.7356 83.6006 26.7553L83.8628 26.6096C83.2507 25.5078 82.268 24.7739 80.8099 24.5308L80.7605 24.8268ZM78.2433 25.2379C78.6032 25.0683 79.5473 24.6245 80.7605 24.8268L80.8099 24.5308C79.5005 24.3126 78.4844 24.7926 78.1154 24.9666L78.2433 25.2379ZM78.1319 25.2888C78.1615 25.2765 78.2005 25.2581 78.2433 25.2379L78.1154 24.9666C78.0697 24.9881 78.0384 25.0028 78.0169 25.0117L78.1319 25.2888ZM80.1595 28.3044C79.9909 28.3465 79.7713 28.3568 79.5583 28.3501C79.3472 28.3434 79.1535 28.3205 79.0419 28.3019L78.9926 28.5979C79.1168 28.6186 79.3238 28.6428 79.5488 28.6499C79.7718 28.657 80.0237 28.6476 80.2323 28.5954L80.1595 28.3044ZM80.6966 28.9508C80.7186 28.8403 80.7305 28.6627 80.6662 28.5163C80.632 28.4384 80.5729 28.3627 80.4777 28.3195C80.384 28.2771 80.2755 28.2754 80.1595 28.3044L80.2323 28.5954C80.3048 28.5773 80.3398 28.5864 80.3538 28.5928C80.3665 28.5985 80.3796 28.6097 80.3915 28.6369C80.4195 28.7007 80.4196 28.8059 80.4024 28.8919L80.6966 28.9508ZM78.9401 29.1679C79.2203 29.336 79.5672 29.3408 79.8658 29.2935C80.168 29.2455 80.4478 29.1399 80.6166 29.0555L80.4824 28.7872C80.3368 28.86 80.0863 28.9547 79.8188 28.9972C79.5477 29.0402 79.2857 29.0254 79.0945 28.9106L78.9401 29.1679ZM79.0173 28.2999C78.9531 28.2999 78.8762 28.3267 78.8139 28.3601C78.7487 28.395 78.6705 28.4525 78.6219 28.5376C78.568 28.6318 78.5579 28.7481 78.6186 28.8665C78.674 28.9744 78.7826 29.0734 78.9401 29.1679L79.0945 28.9106C78.9574 28.8284 78.9039 28.7652 78.8856 28.7296C78.8726 28.7042 78.8772 28.6953 78.8823 28.6864C78.8926 28.6684 78.9176 28.6448 78.9555 28.6245C78.9963 28.6026 79.0226 28.5999 79.0173 28.5999V28.2999Z" fill="#2E2E2E"/>
<path d="M8.53729 24.2059C7.59441 23.263 6.41581 20.6701 6.06223 20.4344M8.53729 24.2059C8.30157 24.5595 6.06223 25.856 4.88363 25.3845C3.70503 24.9131 3.35146 24.5595 3.11574 22.9095C2.88002 21.2594 5.70865 20.1987 6.06223 20.4344M8.53729 24.2059C8.06584 25.1881 7.50011 27.341 9.00872 28.0953C9.71588 28.6846 10.0695 29.156 11.3659 29.0382C12.6624 28.9203 14.3124 25.8227 14.0767 24.9554M8.53729 24.2059C9.32929 24.9979 11.6182 25.4573 14.0767 24.9554M6.06223 20.4344C10.5834 23.6306 16.432 21.2161 18.7911 19.6094M14.0767 24.9554C14.545 24.8597 15.0195 24.7292 15.491 24.5595C16.2617 24.2821 16.8602 23.8123 17.3194 23.263M14.0767 24.9554C14.4303 26.3556 15.6324 28.8967 17.6125 27.8596C20.0875 26.5631 19.2625 24.7952 18.7911 24.3238C18.4139 23.9466 17.6528 23.4595 17.3194 23.263M17.3194 23.263C18.2649 22.1323 18.6203 20.6648 18.6732 19.8451C18.3982 19.6487 18.0368 19.3265 18.7911 19.6094M17.141 23.263C18.3589 24.2452 20.9833 25.8795 21.7376 24.5595C22.4919 23.2395 21.7376 22.0452 21.2661 21.613C20.7554 21.063 19.5454 19.8923 18.7911 19.6094" stroke="#FFE53B" stroke-width="1.2" stroke-linecap="round"/>
<path d="M5.11931 12.5382C4.76573 13.5597 3.63428 15.2962 1.9371 14.0704C1.88587 14.0334 1.83708 13.9941 1.79067 13.9526M21.6197 12.5382C23.1518 11.9489 22.9161 9.47393 22.7983 8.53105C22.6804 7.58817 21.6197 4.7595 19.1446 2.75588C16.6696 0.752268 16.4338 0.752268 9.59798 1.34157C4.12928 1.813 2.2121 5.54523 1.9371 7.35241C1.25129 9.02884 0.299435 12.6193 1.79067 13.9526M21.6197 12.5382C20.0875 13.1276 19.1446 12.1847 18.9089 11.7133M21.6197 12.5382C21.934 12.6954 22.1854 13.5519 22.0911 14.3062C21.9732 15.2491 21.5018 17.3705 19.2625 19.0206C17.0231 20.6706 13.6052 21.6135 12.3087 21.6135C11.0123 21.6135 6.65148 22.085 3.58713 18.0777C1.9371 14.7776 1.87996 14.3062 1.79067 13.9526" stroke="#2E2E2E" stroke-width="1.2" stroke-linecap="round"/>
<path d="M59.0991 17.25C59.1442 17.3851 59.1858 17.5493 59.217 17.734M51.1065 20.7858C51.2811 21.0675 51.471 21.3126 51.674 21.4929C52.518 22.2432 54.0337 22.4711 54.974 22.4141M51.1065 20.7858C50.3685 19.5949 49.9061 17.7491 49.9061 17.3679C49.1596 17.3679 47.6196 17.5093 47.431 18.075C47.1953 18.7822 46.606 20.1965 48.6096 21.0215C50.2125 21.2101 50.9421 20.9429 51.1065 20.7858ZM51.1065 20.7858C50.8388 21.5715 50.4639 23.2844 51.1065 23.8501C51.9097 24.5573 51.674 24.4394 53.0883 24.793C54.2197 25.0759 54.8169 23.325 54.974 22.4141M54.974 22.4141C55.2154 22.3995 55.4189 22.3661 55.5633 22.318C56.2705 22.0822 56.6241 21.9644 57.9205 21.0215C58.1406 20.8791 58.3276 20.7203 58.4858 20.5501M54.974 22.4141C55.524 23.2071 56.9069 24.7223 58.0384 24.4394C59.1698 24.1566 59.5313 23.0644 59.5706 22.5537C59.3581 21.9644 58.8438 20.7386 58.4858 20.5501M58.4858 20.5501C59.0438 21.1394 60.5134 22.1058 61.9277 21.2572C63.3421 20.4086 62.9099 19.0965 62.517 18.5465C62.3206 18.162 61.3856 17.4612 59.217 17.734M58.4858 20.5501C59.2913 19.6836 59.3499 18.5222 59.217 17.734" stroke="#F9BB10" stroke-width="1.2"/>
<path d="M46.8417 9.2472C48.6332 8.4929 47.8239 7.04716 47.1953 6.41857C45.1209 6.04142 44.5238 7.83289 44.4845 8.77576C44.5238 9.2472 45.0502 10.0015 46.8417 9.2472Z" stroke="#2E2E2E" stroke-width="1.2" stroke-linecap="round"/>
<path d="M48.1382 5.94743C48.1382 4.8867 48.9396 2.67093 52.1454 2.29378C55.3512 1.91663 57.6455 2.45093 58.3919 2.76522C59.2955 3.15812 61.0792 4.43894 60.9849 6.41898" stroke="#2E2E2E" stroke-width="1.2" stroke-linecap="round"/>
<path d="M63.5778 9.59936C63.5778 8.56219 62.792 7.91004 62.3992 7.7136C60.9848 7.00645 59.6884 7.94932 60.042 9.4815C60.3955 11.0137 61.9277 11.2494 62.1634 11.2494C62.3992 11.2494 63.5778 10.8958 63.5778 9.59936Z" stroke="#2E2E2E" stroke-width="1.2" stroke-linecap="round"/>
<path d="M62.1634 11.9592C61.967 13.6486 60.4427 17.2394 55.9169 18.0879C51.3911 18.9365 48.7667 16.6343 48.0203 15.3772C47.706 15.1807 47.0067 13.9393 46.7238 10.5449" stroke="#2E2E2E" stroke-width="1.2" stroke-linecap="round"/>
<path d="M52.0157 9.51257C52.3363 9.3682 52.55 9.81332 52.6168 10.0539C52.6168 10.5953 52.216 10.7758 51.6149 10.5953C51.1898 10.4677 51.6149 9.69302 52.0157 9.51257Z" fill="#2E2E2E"/>
<path d="M56.1603 10.0667C56.0892 9.78733 56.5266 9.34597 56.893 9.52647C57.2593 9.70692 57.4425 10.0665 57.2593 10.4265C57.0761 10.7864 56.3434 10.7866 56.1603 10.0667Z" fill="#2E2E2E"/>
<path d="M54.0311 11.8398H55.4454C55.799 12.0756 55.3276 13.2542 54.974 13.2542C54.3847 13.2542 53.7954 12.1934 54.0311 11.8398Z" fill="#2E2E2E"/>
<path d="M95.9792 25.041C96.0571 25.7081 95.8856 27.2529 94.5761 28.0955C92.9392 29.1488 92.0038 29.1488 90.8346 28.9382C89.6653 28.7275 88.0284 28.3062 87.5607 26.8316C87.4672 25.7362 87.5217 25.2517 87.5607 25.1463" stroke="#579A30" stroke-width="1.2" stroke-linecap="round"/>
<path d="M87.5033 25.502C86.8354 25.6984 85.4997 26.1855 85.4997 26.5627C85.4997 27.0341 85.6175 28.3306 86.3247 28.4484C87.0318 28.5663 88.0926 28.4484 88.564 28.0949" stroke="#579A30" stroke-width="1.2"/>
<path d="M88.3283 28.2129C88.0926 29.2343 87.9276 31.2772 89.1533 31.2772C90.6855 31.2772 91.2748 31.1594 91.7462 30.5701C92.1234 30.0986 92.1391 29.4308 92.0998 29.1558" stroke="#579A30" stroke-width="1.2"/>
<path d="M91.982 29.273C92.0998 30.1373 92.6656 31.8424 93.9856 31.7481C95.3056 31.6538 95.4785 30.5302 95.3999 29.9802C95.3213 29.3123 95.0935 27.9766 94.8106 27.9766" stroke="#579A30" stroke-width="1.2"/>
<path d="M94.9284 28.093C95.282 28.6038 96.3192 29.3424 97.6392 28.2109C98.4642 26.9144 98.3778 25.7601 98.1106 25.5001C97.8807 25.2764 97.5271 24.9228 96.2249 24.793" stroke="#579A30" stroke-width="1.2"/>
<path d="M85.264 16.6602C85.7354 16.0002 85.4604 14.4209 85.264 13.7137C84.9104 13.1244 83.0246 15.7173 82.7889 16.0709C82.5532 16.4245 81.9639 17.3674 82.671 17.6031C83.3782 17.8388 84.6747 17.4852 85.264 16.6602Z" stroke="#2E2E2E" stroke-width="1.2"/>
<path d="M85.2639 13.8329C85.6961 12.6936 86.8518 10.7119 89.7484 10.3092C93.0543 9.84967 95.1538 10.4519 96.1128 10.7807C97.1793 11.1463 98.3522 12.1948 98.7 13.5971C98.8491 14.1986 98.7 14.5522 98.7 15.1415M98.7 15.1415C99.7665 15.1415 100.238 15.5073 100.821 16.0844C101.072 16.3323 102 17.6165 102 18.1936C102 18.3115 101.764 19.3722 100.821 19.3722C99.8786 19.3722 98.8854 18.6271 98.7 18.1936C98.3522 17.3808 97.6392 14.67 98.7 15.1415Z" stroke="#2E2E2E" stroke-width="1.2"/>
<path d="M98.8178 18.4312C98.8571 19.4134 98.8389 20.8187 98.3464 22.2027C97.8807 23.5112 95.4303 24.9823 94.6927 25.2671C93.1663 25.8564 92.2177 25.8564 91.8641 25.8564C91.5105 25.8564 88.7997 25.7385 88.0926 25.2671C87.3854 24.7956 86.0947 24.1005 85.3818 22.792C85.0781 22.2347 84.5568 20.6825 84.5568 19.8575C84.5568 19.1975 84.4782 17.7634 84.5568 17.1348" stroke="#2E2E2E" stroke-width="1.2"/>
<path d="M89.0354 17.7207C89.224 17.7207 89.5854 17.9564 89.7426 18.0743C89.8105 18.1252 89.8662 18.322 89.7426 18.4279C89.6531 18.5045 89.5069 18.6636 89.1533 18.6636C88.7997 18.6636 88.564 18.4279 88.564 18.31C88.564 18.1921 88.7997 17.7207 89.0354 17.7207Z" fill="#2E2E2E"/>
<path d="M95.0463 17.9582C95.2349 17.8639 95.7593 17.9703 95.9892 18.1939C96.1296 18.2597 96.1071 18.6654 95.9892 18.7832C95.8713 18.9011 95.4057 18.7953 95.282 18.7832C95.0474 18.7602 94.6985 18.5596 94.6928 18.4297C94.6854 18.2631 94.8106 18.0761 95.0463 17.9582Z" fill="#2E2E2E"/>
<path d="M91.6284 20.6673C91.7227 20.573 92.2177 20.4435 92.5712 20.5494C92.807 20.5448 92.9306 21.1506 92.807 21.3744C92.693 21.5808 92.521 21.8459 92.2177 21.8459C91.8699 21.8459 91.752 21.6221 91.6284 21.3744C91.5539 21.2253 91.5105 20.7851 91.6284 20.6673Z" fill="#2E2E2E"/>
<path d="M9.83952 11.8432C9.74524 11.6546 9.13236 11.3718 8.42521 11.2539C8.07163 11.2539 8.07163 12.3146 8.30735 12.5504C8.54307 12.7861 9.48595 12.6682 9.72167 12.5504C9.95738 12.4325 9.95738 12.0789 9.83952 11.8432Z" fill="#2E2E2E"/>
<path d="M16.4397 11.6061C16.6283 11.3232 16.6754 10.7808 16.3218 10.6632C15.2611 10.5451 15.1432 11.0165 15.0254 11.2525C14.8764 11.5508 15.1432 11.9597 15.4968 11.9597C15.8504 11.9597 16.204 11.9597 16.4397 11.6061Z" fill="#2E2E2E"/>
<path d="M13.2575 14.9078C12.8803 15.0964 12.236 15.1435 11.961 15.1435C11.1124 15.1435 11.2931 15.7722 11.4896 16.0865C11.7253 16.4008 12.3617 16.9823 13.0217 16.7937C13.8468 16.558 13.9646 15.6152 13.9646 15.4971C13.9646 15.3304 13.7289 14.6721 13.2575 14.9078Z" fill="#2E2E2E"/>
</svg>
