<svg width="101" height="50" viewBox="0 0 101 50" fill="none" xmlns="http://www.w3.org/2000/svg">
<path d="M15.5931 29.0113C18.26 27.6319 19.0034 25.3712 19.0417 24.4133H20.651C19.7314 23.1488 25.9388 30.8506 26.7434 31.7702C27.5481 32.6898 28.1228 33.4944 26.7434 34.2991C25.364 35.1038 23.4098 33.8393 23.1799 33.1496C22.95 32.4599 21.9155 31.4253 21.5706 30.8506C21.2947 30.3908 20.8426 30.1992 20.651 30.1608C19.8463 30.7356 15.1333 34.414 12.7194 34.2991C10.3054 34.1841 11.3399 32.5748 11.3399 32.23C11.3399 31.8851 12.2596 30.7356 15.5931 29.0113Z" fill="#2E2E2E" stroke="#2E2E2E" stroke-width="0.3" stroke-linecap="round"/>
<path d="M26.1687 24.5271C27.2722 24.8949 28.4677 24.9869 28.9275 24.9869C28.5826 23.7224 28.5826 21.998 31.1116 21.998C33.6405 21.998 33.4106 24.1821 33.6405 24.5271C33.8704 24.872 32.8358 31.0792 32.7209 31.8839C32.6059 32.6885 32.491 35.6772 31.1116 36.252C29.7322 36.8268 29.6172 34.7576 29.2723 33.838C28.9275 32.9184 29.2723 29.125 29.2723 28.3204C29.2723 27.5157 30.077 28.0905 27.4331 27.8606C24.7892 27.6307 24.3294 26.941 23.9846 26.2513C23.6397 25.5616 24.7892 24.0673 26.1687 24.5271Z" fill="#2E2E2E" stroke="#2E2E2E" stroke-width="0.3" stroke-linecap="round"/>
<path d="M18.0071 39.3559C18.8348 40.0916 22.6435 39.969 24.4444 39.8157V40.5054H18.5819C15.938 40.5054 16.0529 41.425 15.5931 41.7699C15.1333 42.1147 14.4436 45.5633 14.6735 46.138C14.9034 46.7128 16.6277 48.667 18.0071 48.8969C19.3865 49.1268 28.3527 48.8969 29.6172 48.8969C30.8817 48.8969 32.6059 48.0922 32.491 46.9427C32.376 45.7932 31.5714 45.4483 31.2265 45.3334C30.8817 45.2184 22.3753 45.1035 20.1912 45.1035C18.0071 45.1035 18.5819 44.2988 18.8118 43.954C19.0417 43.6091 22.7201 44.1839 24.2145 43.954C25.7089 43.7241 27.2032 42.3447 27.5481 41.7699C27.8929 41.1951 28.0079 41.0802 28.0079 38.8961C28.0079 36.712 25.479 36.3672 24.9042 36.3672C24.3294 36.3672 19.2716 36.5971 18.5819 36.712C17.8922 36.827 16.9726 38.4363 18.0071 39.3559Z" fill="#2E2E2E" stroke="#2E2E2E" stroke-width="0.3" stroke-linecap="round"/>
<path d="M35.4797 30.8488C34.836 33.2398 37.2806 33.4543 38.5834 33.2628C38.2002 33.5309 37.204 34.3201 36.2844 35.3317C35.1349 36.5961 33.7554 38.2054 34.4452 39.0101C35.1349 39.8148 37.204 39.4699 38.0086 39.0101C38.8133 38.5503 41.802 35.4466 42.3768 34.527C42.9515 33.6074 43.4114 33.2628 43.2964 31.9981C43.1814 30.7334 40.8824 29.6993 40.4226 29.6993C39.9628 29.6993 36.1694 28.8946 35.4797 30.8488Z" fill="#2E2E2E" stroke="#2E2E2E" stroke-width="0.3" stroke-linecap="round"/>
<path d="M45.1357 23.4928C44.0321 24.9642 45.2123 26.175 45.9403 26.5965C46.4001 26.9315 45.9403 40.9654 45.7104 42.3448C45.4805 43.7242 45.9403 45.1036 46.9749 45.2186C48.0094 45.3335 49.2739 44.9887 49.7337 43.8391C50.1935 42.6896 49.7337 27.1712 49.7337 26.5965C49.7337 26.0217 49.3888 25.447 49.2739 24.8722C49.1589 24.2974 46.5151 21.6536 45.1357 23.4928Z" fill="#2E2E2E" stroke="#2E2E2E" stroke-width="0.3" stroke-linecap="round"/>
<path d="M55.5962 28.0908L62.2634 28.3209V29.7004C60.5392 29.662 57.0216 29.5854 56.7458 29.5854C56.4009 29.5854 55.5962 28.8957 54.6766 29.3555C53.757 29.8153 54.1019 30.7349 54.1019 31.1947V34.2984C54.1019 34.9881 54.1019 34.8732 55.1364 36.0227C55.9641 36.9423 57.6271 37.3255 58.3551 37.4021V40.2759L58.0102 40.8506C56.9757 40.7357 54.6996 40.5058 53.872 40.5058C52.8374 40.5058 50.8832 39.931 50.4234 41.7702C50.0556 43.2416 51.0365 43.7627 51.573 43.8394H70.0801C70.7698 43.8394 72.1492 43.4945 72.0343 42.1151C71.9423 41.0116 70.9231 40.8123 70.425 40.8506H61.8036V37.632C62.2251 37.5937 63.206 37.4941 63.7578 37.4021C64.4475 37.2871 65.712 37.517 66.1718 35.7928C66.5396 34.4134 65.0989 33.9919 64.3325 33.9536L57.6654 33.6087V32.919H63.9877C65.1832 32.919 65.4054 31.7695 65.3671 31.1947C65.3671 31.0031 65.4361 30.574 65.712 30.3901C66.0568 30.1602 65.9419 29.5854 66.1718 28.8957C66.4017 28.206 65.8269 26.4817 65.3671 25.9068C64.9073 25.3318 61.5737 24.6423 60.4242 24.8722C59.2747 25.1021 54.6766 23.9526 54.4467 25.9068C54.2628 27.4701 55.1364 28.0142 55.5962 28.0908Z" fill="#2E2E2E" stroke="#2E2E2E" stroke-width="0.3" stroke-linecap="round"/>
<path d="M70.5399 30.9653C71.6434 32.1608 72.6856 32.4597 73.0688 32.4597C74.1034 32.779 76.6323 32.6894 79.621 32.6894C82.6098 32.6894 86.1732 32.1147 87.5527 32.2296C88.9321 32.3446 89.6218 32.8044 89.7367 33.609C89.8517 34.4137 89.162 35.1034 88.4723 35.3333C87.9205 35.5172 83.9509 35.8697 82.035 36.023L81.8051 38.7818C81.7285 39.3949 81.2303 40.6211 79.8509 40.6211C78.4715 40.6211 78.2799 39.2416 78.3566 38.5519V36.2529C77.6669 36.2529 75.5288 36.2069 72.4941 36.023C68.7007 35.7931 68.7007 33.3793 68.3558 32.4597C68.011 31.5401 69.7352 30.2756 70.5399 30.9653Z" fill="#2E2E2E" stroke="#2E2E2E" stroke-width="0.3" stroke-linecap="round"/>
<path d="M75.8276 39.3563C76.1955 39.908 76.3641 41.0422 76.4024 41.5403C76.7472 41.6553 82.035 41.5403 83.6443 41.4254C85.2536 41.3104 86.1732 41.8852 86.2882 42.8048C86.4031 43.7244 85.4835 44.759 85.0237 44.9889C84.5639 45.2188 78.7014 44.9889 76.9771 45.1038C75.2529 45.2188 74.4482 44.8739 73.7585 44.5291C73.0688 44.1842 73.0688 42.8048 73.0688 42.4599V42.4599C73.0688 42.1151 73.0688 41.3104 72.494 40.6207C71.9193 39.931 72.1492 39.4712 72.1492 39.0114C72.1492 38.5516 73.0688 38.0918 73.7585 38.0918C74.4482 38.0918 75.3678 38.6666 75.8276 39.3563Z" fill="#2E2E2E" stroke="#2E2E2E" stroke-width="0.3" stroke-linecap="round"/>
<path fill-rule="evenodd" clip-rule="evenodd" d="M76.1724 24.5279C75.7126 24.7195 74.7241 25.1256 74.4482 25.2176C74.1033 25.3326 72.7239 26.4821 73.2987 28.8961C73.8734 31.31 75.9425 31.9997 77.207 31.8848C78.4715 31.7698 81.1153 31.31 81.6901 29.8157C82.2649 28.3213 82.2649 27.0568 81.6901 26.0223C81.1153 24.9877 80.1957 24.298 78.8163 24.0681C77.5862 23.8631 76.6303 24.3136 76.2747 24.4811C76.2316 24.5014 76.1973 24.5176 76.1724 24.5279ZM77.092 27.746C77.3219 27.7843 77.8737 27.8379 78.2415 27.746C78.6094 27.654 78.6247 28.0142 78.5864 28.2058C78.2798 28.3591 77.5518 28.5967 77.092 28.3208C76.5172 27.9759 76.977 27.746 77.092 27.746Z" fill="#2E2E2E"/>
<path d="M74.4482 25.2176L74.4007 25.0753L74.4007 25.0753L74.4482 25.2176ZM76.1724 24.5279L76.115 24.3894L76.1148 24.3894L76.1724 24.5279ZM73.2987 28.8961L73.4446 28.8613L73.4446 28.8613L73.2987 28.8961ZM77.207 31.8848L77.1934 31.7354L77.1934 31.7354L77.207 31.8848ZM81.6901 29.8157L81.5501 29.7618L81.5501 29.7618L81.6901 29.8157ZM81.6901 26.0223L81.559 26.0951L81.559 26.0951L81.6901 26.0223ZM78.8163 24.0681L78.841 23.9201L78.8163 24.0681ZM76.2747 24.4811L76.2108 24.3454L76.2747 24.4811ZM78.2415 27.746L78.2051 27.6004L78.2051 27.6004L78.2415 27.746ZM77.092 27.746L77.1167 27.598L77.1044 27.596H77.092V27.746ZM78.5864 28.2058L78.6535 28.3399L78.7191 28.3071L78.7335 28.2352L78.5864 28.2058ZM77.092 28.3208L77.0148 28.4494L77.0148 28.4494L77.092 28.3208ZM74.4956 25.3599C74.7781 25.2657 75.7734 24.8567 76.2301 24.6664L76.1148 24.3894C75.6519 24.5823 74.67 24.9856 74.4007 25.0753L74.4956 25.3599ZM73.4446 28.8613C73.1653 27.6885 73.3626 26.8348 73.6614 26.2643C73.8116 25.9777 73.9883 25.7607 74.146 25.6097C74.3075 25.4551 74.4395 25.3786 74.4956 25.3599L74.4007 25.0753C74.2844 25.1141 74.1147 25.2244 73.9385 25.3931C73.7586 25.5653 73.5617 25.8082 73.3957 26.1251C73.0623 26.7616 72.8572 27.6896 73.1527 28.9308L73.4446 28.8613ZM77.1934 31.7354C75.9836 31.8454 73.9979 31.1851 73.4446 28.8613L73.1527 28.9308C73.749 31.435 75.9015 32.1541 77.2206 32.0342L77.1934 31.7354ZM81.5501 29.7618C81.2878 30.4437 80.5401 30.9128 79.657 31.2261C78.7827 31.5364 77.8194 31.6785 77.1934 31.7354L77.2206 32.0342C77.8591 31.9761 78.85 31.8309 79.7574 31.5089C80.656 31.19 81.5176 30.682 81.8301 29.8695L81.5501 29.7618ZM81.559 26.0951C82.1052 27.0784 82.1149 28.2934 81.5501 29.7618L81.8301 29.8695C82.4149 28.3492 82.4245 27.0353 81.8212 25.9494L81.559 26.0951ZM78.7917 24.2161C80.1273 24.4387 81.007 25.1016 81.559 26.0951L81.8212 25.9494C81.2237 24.8738 80.2642 24.1573 78.841 23.9201L78.7917 24.2161ZM76.3387 24.6168C76.6897 24.4514 77.6095 24.019 78.7917 24.2161L78.841 23.9201C77.5628 23.7071 76.5708 24.1757 76.2108 24.3454L76.3387 24.6168ZM76.2299 24.6664C76.2589 24.6544 76.297 24.6364 76.3387 24.6168L76.2108 24.3454C76.1662 24.3664 76.1358 24.3807 76.115 24.3894L76.2299 24.6664ZM78.2051 27.6004C78.0412 27.6414 77.8274 27.6514 77.6198 27.6449C77.414 27.6384 77.2253 27.6161 77.1167 27.598L77.0673 27.8939C77.1886 27.9141 77.3907 27.9378 77.6103 27.9447C77.8279 27.9516 78.074 27.9425 78.2779 27.8915L78.2051 27.6004ZM78.7335 28.2352C78.7551 28.1272 78.7668 27.953 78.7036 27.8092C78.6699 27.7326 78.6117 27.658 78.5179 27.6155C78.4255 27.5736 78.3188 27.572 78.2051 27.6004L78.2779 27.8915C78.3481 27.8739 78.3813 27.8829 78.394 27.8887C78.4053 27.8938 78.4175 27.904 78.4289 27.9299C78.4558 27.9911 78.456 28.0928 78.4393 28.1764L78.7335 28.2352ZM77.0148 28.4494C77.2892 28.614 77.6286 28.6186 77.9202 28.5724C78.2153 28.5255 78.4886 28.4224 78.6535 28.3399L78.5193 28.0716C78.3776 28.1424 78.1336 28.2347 77.8732 28.2761C77.6091 28.318 77.3546 28.3034 77.1692 28.1922L77.0148 28.4494ZM77.092 27.596C77.0285 27.596 76.9529 27.6224 76.8918 27.6551C76.8279 27.6893 76.751 27.7458 76.7031 27.8296C76.65 27.9226 76.6401 28.0374 76.6999 28.1539C76.7543 28.2601 76.8609 28.3571 77.0148 28.4494L77.1692 28.1922C77.0357 28.1121 76.9842 28.0509 76.9668 28.017C76.9548 27.9935 76.9592 27.9861 76.9636 27.9785C76.9732 27.9617 76.9969 27.9391 77.0335 27.9195C77.0731 27.8983 77.098 27.896 77.092 27.896V27.596Z" fill="#2E2E2E"/>
<path d="M8.35127 23.6073C7.43166 22.6877 6.28215 20.1588 5.9373 19.9289C5.59244 19.699 2.83361 20.7335 3.06351 22.3429C3.29342 23.9522 3.63826 24.297 4.78778 24.7568C5.9373 25.2166 8.12137 23.9522 8.35127 23.6073ZM8.35127 23.6073C7.89147 24.5653 7.3397 26.665 8.81107 27.4007C9.50078 27.9755 9.84563 28.4353 11.1101 28.3203C12.3746 28.2054 13.9839 25.1842 13.754 24.3383M8.35127 23.6073C9.12373 24.3798 11.3561 24.8278 13.754 24.3383M13.754 24.3383C14.2108 24.245 14.6735 24.1177 15.1334 23.9522C15.885 23.6816 16.4688 23.2234 16.9167 22.6877M13.754 24.3383C14.0988 25.7039 15.2713 28.1824 17.2025 27.1708C19.6165 25.9064 18.8118 24.1821 18.352 23.7223C17.9842 23.3544 17.2419 22.8793 16.9167 22.6877M16.9167 22.6877C17.8388 21.5849 18.1855 20.1536 18.2371 19.3541C17.9689 19.1625 17.6163 18.8483 18.352 19.1242C19.0877 19.4001 20.2679 20.542 20.766 21.0784C21.2258 21.4999 21.9615 22.6647 21.2258 23.9522C20.4901 25.2396 17.9305 23.6456 16.7427 22.6877" stroke="#FFE53B" stroke-linecap="round"/>
<path d="M5.01766 12.2281C4.67281 13.2244 3.56927 14.918 1.91398 13.7225C1.86401 13.6864 1.81643 13.648 1.77116 13.6076M21.1108 12.2281C22.6052 11.6533 22.3753 9.23942 22.2603 8.31981C22.1454 7.4002 21.1108 4.64133 18.6969 2.68716C16.2829 0.73299 16.053 0.73299 9.3858 1.30775C4.05206 1.76755 2.18219 5.40767 1.91398 7.17026C1.24509 8.80532 0.316723 12.3072 1.77116 13.6076M21.1108 12.2281C19.6165 12.8029 18.6969 11.8833 18.4669 11.4235M21.1108 12.2281C21.4174 12.3814 21.6626 13.2167 21.5706 13.9524C21.4557 14.872 20.9959 16.9412 18.8118 18.5505C16.6277 20.1598 13.2941 21.0794 12.0297 21.0794C10.7652 21.0794 6.51202 21.5392 3.52329 17.6309C1.91398 14.4122 1.85824 13.9524 1.77116 13.6076" stroke="#2E2E2E" stroke-linecap="round"/>
<path d="M13.0643 14.6415C12.6654 14.5841 12.0173 14.5835 11.5699 14.8714C11.3692 15.2321 12.0297 15.906 12.7194 15.6761C13.4091 15.4462 13.547 14.711 13.0643 14.6415Z" fill="#2E2E2E"/>
<path d="M8.46618 10.8492C8.59605 10.719 9.23276 11.0424 9.73064 11.539C9.84558 11.6537 9.35165 11.9924 8.7769 11.9924C8.20214 11.9924 8.35126 10.9645 8.46618 10.8492Z" fill="#2E2E2E"/>
<path d="M14.9035 10.7306C14.8115 10.5467 15.4782 10.2708 15.938 10.2708C16.3979 10.1581 16.053 11.4203 15.4782 11.3054C14.9035 11.1904 15.0184 10.9605 14.9035 10.7306Z" fill="#2E2E2E"/>
<path d="M57.6653 16.8242C57.7093 16.956 57.7499 17.1162 57.7803 17.2963M49.8699 20.2728C50.0402 20.5475 50.2255 20.7865 50.4234 20.9625C51.2466 21.6942 52.7249 21.9165 53.642 21.8609M49.8699 20.2728C49.1502 19.1112 48.6991 17.311 48.6991 16.9392C47.9711 16.9392 46.4691 17.0771 46.2852 17.6289C46.0553 18.3186 45.4805 19.698 47.4347 20.5027C48.998 20.6866 49.7096 20.426 49.8699 20.2728ZM49.8699 20.2728C49.6088 21.0391 49.2432 22.7097 49.8699 23.2615C50.6533 23.9512 50.4234 23.8362 51.8028 24.1811C52.9063 24.457 53.4888 22.7493 53.642 21.8609M53.642 21.8609C53.8775 21.8467 54.0759 21.8141 54.2168 21.7671C54.9065 21.5372 55.2514 21.4223 56.5158 20.5027C56.7305 20.3638 56.9129 20.2089 57.0672 20.0429M53.642 21.8609C54.1785 22.6343 55.5272 24.1121 56.6308 23.8362C57.7343 23.5604 58.0868 22.4951 58.1251 21.997C57.918 21.4223 57.4163 20.2268 57.0672 20.0429M57.0672 20.0429C57.6114 20.6176 59.0447 21.5602 60.4242 20.7326C61.8036 19.9049 61.3821 18.6251 60.9989 18.0887C60.8073 17.7137 59.8954 17.0302 57.7803 17.2963M57.0672 20.0429C57.8528 19.1977 57.9099 18.065 57.7803 17.2963" stroke="#F9BB10"/>
<path d="M45.7104 9.01793C47.4577 8.28224 46.6683 6.87217 46.0553 6.2591C44.0321 5.89126 43.4497 7.63851 43.4114 8.55812C43.4497 9.01793 43.9631 9.75362 45.7104 9.01793Z" stroke="#2E2E2E" stroke-linecap="round"/>
<path d="M46.9749 5.80133C46.9749 4.76677 47.7565 2.60569 50.8832 2.23785C54.0099 1.87 56.2476 2.39111 56.9756 2.69765C57.8569 3.08086 59.5965 4.33007 59.5045 6.26125" stroke="#2E2E2E" stroke-linecap="round"/>
<path d="M62.0335 9.36529C62.0335 8.35371 61.2671 7.71765 60.884 7.52607C59.5046 6.83636 58.2401 7.75597 58.5849 9.25033C58.9298 10.7447 60.4242 10.9746 60.6541 10.9746C60.884 10.9746 62.0335 10.6297 62.0335 9.36529Z" stroke="#2E2E2E" stroke-linecap="round"/>
<path d="M60.6541 11.6626C60.4625 13.3103 58.9758 16.8124 54.5617 17.6401C50.1475 18.4677 47.5879 16.2224 46.8599 14.9962C46.5534 14.8046 45.8713 13.5938 45.5955 10.2832" stroke="#2E2E2E" stroke-linecap="round"/>
<path d="M50.7567 9.2775C51.0694 9.13669 51.2778 9.57083 51.343 9.8055C51.343 10.3335 50.9521 10.5095 50.3658 10.3335C49.9512 10.2091 50.3658 9.4535 50.7567 9.2775Z" fill="#2E2E2E"/>
<path d="M54.799 9.81795C54.7296 9.54548 55.1563 9.11501 55.5136 9.29106C55.8709 9.46705 56.0496 9.81776 55.8709 10.1688C55.6923 10.5199 54.9777 10.5201 54.799 9.81795Z" fill="#2E2E2E"/>
<path d="M52.7224 11.5488H54.1018C54.4467 11.7787 53.9869 12.9282 53.6421 12.9282C53.0673 12.9282 52.4925 11.8937 52.7224 11.5488Z" fill="#2E2E2E"/>
<path d="M93.645 24.0703C93.7216 24.7983 93.5531 26.4843 92.2656 27.4039C90.6563 28.5534 89.7367 28.5534 88.5872 28.3235C87.4376 28.0936 85.8283 27.6338 85.3685 26.0245C85.2766 24.829 85.3302 24.3002 85.3685 24.1853" stroke="#579A30" stroke-linecap="round"/>
<path d="M85.3685 24.875C84.7171 25.0666 83.4143 25.5417 83.4143 25.9096C83.4143 26.3694 83.5293 27.6338 84.219 27.7488C84.9087 27.8637 85.9432 27.7488 86.403 27.4039" stroke="#579A30"/>
<path d="M86.1732 27.5195C85.9433 28.5158 85.7824 30.5083 86.9779 30.5083C88.4722 30.5083 89.047 30.3933 89.5068 29.8186C89.8746 29.3588 89.8899 28.7074 89.8516 28.4391" stroke="#579A30"/>
<path d="M89.7367 28.5516C89.8516 29.3945 90.4034 31.0575 91.6909 30.9655C92.9783 30.8736 93.1469 29.7777 93.0703 29.2413C92.9936 28.5899 92.7714 27.2871 92.4955 27.2871" stroke="#579A30"/>
<path d="M92.6105 27.4022C92.9553 27.9004 93.9669 28.6207 95.2544 27.5172C96.059 26.2527 96.059 24.9883 95.7142 24.8733C95.3693 24.7584 96.059 24.5284 93.8749 24.1836" stroke="#579A30"/>
<path d="M83.1845 16.2553C83.6443 15.6115 83.376 14.0712 83.1845 13.3815C82.8396 12.8067 81.0004 15.3357 80.7705 15.6805C80.5406 16.0254 79.9658 16.945 80.6555 17.1749C81.3452 17.4048 82.6097 17.0599 83.1845 16.2553Z" stroke="#2E2E2E"/>
<path d="M83.1844 13.4949C83.6059 12.3837 85.1616 10.1843 88.0124 10.2762C91.5759 10.3912 93.0703 10.1612 93.8749 10.7359C94.6796 11.3107 96.2889 13.0349 96.2889 13.2649C96.2889 13.4949 96.6337 14.0695 96.2889 14.5293M96.2889 14.5293C96.8253 14.9891 97.9902 15.9547 98.358 16.1386C98.8178 16.3685 99.5075 17.633 99.5075 17.748C99.5075 17.8629 99.2776 18.8975 98.358 18.8975C97.4384 18.8975 96.2889 18.2078 96.2889 17.748C96.2889 17.2882 95.2543 14.0695 96.2889 14.5293Z" stroke="#2E2E2E"/>
<path d="M96.4038 17.9774C96.4422 18.9353 96.4038 21.0121 95.944 21.6558C95.3693 22.4605 93.0702 24.2997 92.3805 24.6445C91.6908 24.9894 89.9666 25.2193 89.6217 25.2193C89.2769 25.2193 86.633 25.1043 85.9433 24.6445C85.2536 24.1847 83.5293 22.8053 83.2994 22.2306C83.0695 21.6558 82.2648 20.1614 82.2648 19.3568C82.2648 18.713 82.4181 17.326 82.4947 16.7129" stroke="#2E2E2E"/>
<path d="M86.8629 17.2891C87.0468 17.2891 87.3993 17.519 87.5526 17.6339C87.6675 17.7153 87.5526 17.8638 87.5526 17.9788C87.5526 18.0937 87.3227 18.2087 86.9778 18.2087C86.633 18.2087 86.4031 17.9788 86.4031 17.8638C86.4031 17.7489 86.633 17.2891 86.8629 17.2891Z" fill="#2E2E2E"/>
<path d="M92.7254 17.519C92.9093 17.427 93.4151 17.634 93.645 17.7489C93.7819 17.813 93.76 18.2087 93.645 18.3237C93.5301 18.4386 93.1852 18.3237 92.9553 18.3237C92.7254 18.3237 92.4955 18.0938 92.3806 17.9788L92.3806 17.9788C92.2656 17.8638 92.4955 17.634 92.7254 17.519Z" fill="#2E2E2E"/>
<path d="M89.3918 20.1618C89.4838 20.0699 90.0432 20.0469 90.3114 20.0469C90.5413 20.0424 90.5413 20.6216 90.5413 20.8515C90.5413 21.0814 90.0815 21.3113 89.9666 21.3113C89.8516 21.3113 89.5068 20.9665 89.3918 20.8515C89.2769 20.7366 89.2769 20.2768 89.3918 20.1618Z" fill="#2E2E2E"/>
</svg>
